<svg width="149" height="42" viewBox="0 0 149 42" fill="none" xmlns="http://www.w3.org/2000/svg">
<path d="M80.784 11.344L75.66 31H69.864L66.728 18.064L63.48 31H57.684L52.7 11.344H57.824L60.652 25.652L64.152 11.344H69.416L72.776 25.652L75.632 11.344H80.784ZM92.7892 15.208C94.5812 15.208 96.0186 15.8053 97.1012 17C98.1839 18.176 98.7252 19.8 98.7252 21.872V31H93.9652V22.516C93.9652 21.4707 93.6946 20.6587 93.1532 20.08C92.6119 19.5013 91.8839 19.212 90.9692 19.212C90.0546 19.212 89.3266 19.5013 88.7852 20.08C88.2439 20.6587 87.9732 21.4707 87.9732 22.516V31H83.1852V10.28H87.9732V17.476C88.4586 16.7853 89.1212 16.2347 89.9612 15.824C90.8012 15.4133 91.7439 15.208 92.7892 15.208ZM118.012 15.376L108.212 38.42H103.06L106.644 30.468L100.288 15.376H105.636L109.248 25.148L112.832 15.376H118.012ZM124.532 17.98C125.092 17.1213 125.792 16.4493 126.632 15.964C127.472 15.46 128.405 15.208 129.432 15.208V20.276H128.116C126.921 20.276 126.025 20.5373 125.428 21.06C124.83 21.564 124.532 22.46 124.532 23.748V31H119.744V15.376H124.532V17.98ZM130.768 23.16C130.768 21.5547 131.067 20.1453 131.664 18.932C132.28 17.7187 133.111 16.7853 134.156 16.132C135.202 15.4787 136.368 15.152 137.656 15.152C138.683 15.152 139.616 15.3667 140.456 15.796C141.315 16.2253 141.987 16.804 142.472 17.532V10.28H147.26V31H142.472V28.76C142.024 29.5067 141.38 30.104 140.54 30.552C139.719 31 138.758 31.224 137.656 31.224C136.368 31.224 135.202 30.8973 134.156 30.244C133.111 29.572 132.28 28.6293 131.664 27.416C131.067 26.184 130.768 24.7653 130.768 23.16ZM142.472 23.188C142.472 21.9933 142.136 21.0507 141.464 20.36C140.811 19.6693 140.008 19.324 139.056 19.324C138.104 19.324 137.292 19.6693 136.62 20.36C135.967 21.032 135.64 21.9653 135.64 23.16C135.64 24.3547 135.967 25.3067 136.62 26.016C137.292 26.7067 138.104 27.052 139.056 27.052C140.008 27.052 140.811 26.7067 141.464 26.016C142.136 25.3253 142.472 24.3827 142.472 23.188Z" fill="#343741"/>
<path d="M0 5H9V37C4.02944 37 0 32.9706 0 28V5Z" fill="#7B0426"/>
<path d="M32 14C32 9.02944 27.9706 5 23 5V37H32V14Z" fill="#E90848"/>
<path d="M9 15H18V37H9V15Z" fill="#AD0635"/>
</svg>
